<?xml version="1.0" encoding="UTF-8"?>
<!DOCTYPE svg PUBLIC "-//W3C//DTD SVG 1.1//EN" "http://www.w3.org/Graphics/SVG/1.1/DTD/svg11.dtd">
<svg xmlns="http://www.w3.org/2000/svg" version="1.1" width="256px" height="256px" style="shape-rendering:geometricPrecision; text-rendering:geometricPrecision; image-rendering:optimizeQuality; fill-rule:evenodd; clip-rule:evenodd" xmlns:xlink="http://www.w3.org/1999/xlink">
<g><path style="opacity:0.987" fill="#c9c9c9" d="M 121.5,11.5 C 127.965,10.697 133.965,11.8637 139.5,15C 173,48.5 206.5,82 240,115.5C 244.667,123.5 244.667,131.5 240,139.5C 206.5,173 173,206.5 139.5,240C 130.073,245.131 121.073,244.464 112.5,238C 80.6667,206.167 48.8333,174.333 17,142.5C 10.5356,133.927 9.86891,124.927 15,115.5C 48.8333,81.6667 82.6667,47.8333 116.5,14C 118.315,13.2432 119.981,12.4098 121.5,11.5 Z"/></g>
<g><path style="opacity:1" fill="#fefefe" d="M 125.5,19.5 C 129.599,19.3666 133.266,20.5333 136.5,23C 168.333,54.8333 200.167,86.6667 232,118.5C 235.567,123.131 236.233,128.131 234,133.5C 200.5,167 167,200.5 133.5,234C 128.09,236.365 123.09,235.699 118.5,232C 87,200.5 55.5,169 24,137.5C 19.8316,132.688 18.8316,127.355 21,121.5C 43,99.5 65,77.5 87,55.5C 93.3333,61.8333 99.6667,68.1667 106,74.5C 104.769,85.0116 108.269,93.3449 116.5,99.5C 117.833,118.833 117.833,138.167 116.5,157.5C 104.53,167.723 103.53,178.889 113.5,191C 122.873,198.326 132.206,198.326 141.5,191C 151.1,179.727 150.6,168.893 140,158.5C 139.333,141.833 139.333,125.167 140,108.5C 144.667,113.167 149.333,117.833 154,122.5C 152.618,142.117 161.785,150.95 181.5,149C 192.994,143.846 197.494,135.013 195,122.5C 190.326,111.908 182.159,107.075 170.5,108C 163.333,100.833 156.167,93.6667 149,86.5C 149.955,75.9086 145.788,68.0753 136.5,63C 132.251,61.8744 127.918,61.2077 123.5,61C 116.5,54 109.5,47 102.5,40C 108.833,33.6667 115.167,27.3333 121.5,21C 123.058,20.79 124.391,20.29 125.5,19.5 Z"/></g>
<g><path style="opacity:1" fill="#fdfdfd" d="M 132.5,89.5 C 132.44,88.9569 132.107,88.6236 131.5,88.5C 130.171,113.33 130.171,137.997 131.5,162.5C 141.441,168.095 143.108,175.595 136.5,185C 126.7,191.227 119.534,189.061 115,178.5C 113.788,170.593 116.955,165.26 124.5,162.5C 125.666,140.174 125.833,117.841 125,95.5C 114.944,91.3922 112.111,84.3922 116.5,74.5C 109.181,66.681 101.681,59.0143 94,51.5C 93.5,48 95,46.5 98.5,47C 106.348,54.681 114.015,62.5143 121.5,70.5C 136.056,67.8889 142.222,73.8889 140,88.5C 149.348,97.6808 158.514,107.014 167.5,116.5C 171.38,116.588 175.38,116.754 179.5,117C 187.519,120.922 189.686,127.089 186,135.5C 183.236,139.767 179.236,141.767 174,141.5C 167.611,141.117 163.611,137.783 162,131.5C 161.585,127.69 161.918,124.023 163,120.5C 152.631,110.298 142.465,99.9651 132.5,89.5 Z"/></g>
<g><path style="opacity:1" fill="#f0f0f0" d="M 132.5,89.5 C 131.502,113.661 131.169,137.994 131.5,162.5C 130.171,137.997 130.171,113.33 131.5,88.5C 132.107,88.6236 132.44,88.9569 132.5,89.5 Z"/></g>
</svg>
