<?xml version="1.0" encoding="UTF-8"?>
<!DOCTYPE svg PUBLIC "-//W3C//DTD SVG 1.1//EN" "http://www.w3.org/Graphics/SVG/1.1/DTD/svg11.dtd">
<svg xmlns="http://www.w3.org/2000/svg" version="1.1" width="256px" height="256px" style="shape-rendering:geometricPrecision; text-rendering:geometricPrecision; image-rendering:optimizeQuality; fill-rule:evenodd; clip-rule:evenodd" xmlns:xlink="http://www.w3.org/1999/xlink">
<g><path style="opacity:0.939" fill="#fefffe" d="M 142.5,21.5 C 144.857,21.3367 147.19,21.5034 149.5,22C 158.146,32.4608 159.646,43.9608 154,56.5C 151.916,60.3359 149.583,64.0026 147,67.5C 137.997,76.8363 128.664,85.8363 119,94.5C 115.234,100.493 114.567,106.827 117,113.5C 121.457,121.584 126.291,129.418 131.5,137C 129.167,138.833 126.833,140.667 124.5,142.5C 114.736,134.24 106.236,124.907 99,114.5C 93.7044,104.161 94.7044,94.4946 102,85.5C 111.576,75.9202 121.742,67.0869 132.5,59C 143.608,48.6488 146.941,36.1488 142.5,21.5 Z"/></g>
<g><path style="opacity:0.944" fill="#fefffe" d="M 171.5,63.5 C 173.117,65.1209 174.284,67.1209 175,69.5C 175.749,70.635 175.583,71.635 174.5,72.5C 166.995,77.0848 159.662,81.9182 152.5,87C 148.908,89.921 146.075,93.421 144,97.5C 143.416,100.257 143.75,102.923 145,105.5C 150.029,111.363 153.529,118.029 155.5,125.5C 154.098,134.127 149.764,140.96 142.5,146C 150.797,145.388 159.13,144.388 167.5,143C 173.624,134.068 181.957,131.068 192.5,134C 206.472,139.44 210.305,148.94 204,162.5C 201.167,166.667 197.667,170.167 193.5,173C 186.309,176.951 178.809,180.118 171,182.5C 169.732,180.283 168.232,178.283 166.5,176.5C 144.925,183.196 122.925,185.196 100.5,182.5C 100.33,183.822 100.663,184.989 101.5,186C 108.632,187.087 115.799,187.921 123,188.5C 132.166,187.275 141.333,186.442 150.5,186C 157.083,189.194 163.75,192.194 170.5,195C 146.1,207.015 120.767,209.682 94.5,203C 95.5,204 96.5,205 97.5,206C 92.8092,206.65 88.1425,206.483 83.5,205.5C 79.7576,206.015 76.0909,206.848 72.5,208C 73.5,208.333 74.5,208.667 75.5,209C 104.103,213.271 132.769,213.604 161.5,210C 169.617,209.036 177.617,207.536 185.5,205.5C 185.18,202.102 185.513,198.768 186.5,195.5C 189.746,197.039 192.912,198.706 196,200.5C 198.929,203.751 199.096,207.085 196.5,210.5C 200.137,210.487 203.803,211.32 207.5,213C 204.516,221.526 198.516,226.859 189.5,229C 155.12,237.276 120.453,238.609 85.5,233C 78.5473,231.38 72.5473,228.047 67.5,223C 61.1678,222.468 55.1678,220.801 49.5,218C 45.8422,213.54 46.1755,209.207 50.5,205C 61.9044,197.395 74.2377,194.728 87.5,197C 85.0922,193.957 84.9255,190.791 87,187.5C 89.4075,185.044 92.2409,183.211 95.5,182C 89.22,181.032 84.0534,178.199 80,173.5C 79.2626,167.485 81.7626,163.318 87.5,161C 80.6233,160.691 73.9567,159.358 67.5,157C 62.1792,152.715 62.1792,148.381 67.5,144C 78.8701,138.492 90.8701,135.325 103.5,134.5C 107.582,137.075 111.249,140.242 114.5,144C 111.106,144.752 107.773,144.585 104.5,143.5C 100.808,144.564 97.1414,145.731 93.5,147C 106.808,148.338 120.142,148.338 133.5,147C 132.196,146.196 131.529,145.029 131.5,143.5C 132.43,141.394 133.596,139.394 135,137.5C 135.667,135.167 135.667,132.833 135,130.5C 117.01,108.356 120.176,89.8565 144.5,75C 153.358,70.5638 162.358,66.7305 171.5,63.5 Z M 177.5,144.5 C 186.181,143.35 190.015,147.017 189,155.5C 184.918,162.748 179.085,168.082 171.5,171.5C 165.295,169.478 159.461,166.811 154,163.5C 135.643,167.554 117.143,168.387 98.5,166C 97.2567,164.846 96.2567,163.512 95.5,162C 118.425,162.735 141.092,160.735 163.5,156C 166.005,154.247 168.671,152.747 171.5,151.5C 172.167,149.833 172.833,148.167 173.5,146.5C 175.026,146.006 176.359,145.339 177.5,144.5 Z"/></g>
</svg>
