<?xml version="1.0" encoding="UTF-8"?>
<!DOCTYPE svg PUBLIC "-//W3C//DTD SVG 1.1//EN" "http://www.w3.org/Graphics/SVG/1.1/DTD/svg11.dtd">
<svg xmlns="http://www.w3.org/2000/svg" version="1.1" width="256px" height="256px" style="shape-rendering:geometricPrecision; text-rendering:geometricPrecision; image-rendering:optimizeQuality; fill-rule:evenodd; clip-rule:evenodd" xmlns:xlink="http://www.w3.org/1999/xlink">
<g><path style="opacity:0.925" fill="#fefffe" d="M 120.5,-0.5 C 125.167,-0.5 129.833,-0.5 134.5,-0.5C 165.405,17.2926 196.405,35.1259 227.5,53C 233.723,56.2235 238.223,61.0568 241,67.5C 241.667,107.5 241.667,147.5 241,187.5C 239.324,192.178 236.491,196.011 232.5,199C 199.607,217.608 166.941,236.441 134.5,255.5C 129.833,255.5 125.167,255.5 120.5,255.5C 108.896,248.693 97.2297,241.86 85.5,235C 82.9613,233.901 82.2946,232.234 83.5,230C 89.4372,228.03 95.1039,225.53 100.5,222.5C 109.624,227.23 118.624,232.23 127.5,237.5C 158.833,219.5 190.167,201.5 221.5,183.5C 222.833,146.167 222.833,108.833 221.5,71.5C 190.167,53.5 158.833,35.5 127.5,17.5C 95.6697,35.5808 64.0031,53.9141 32.5,72.5C 31.3401,108.792 31.1734,145.125 32,181.5C 41.9211,188.548 52.4211,194.715 63.5,200C 70.8667,201.953 76.0334,199.453 79,192.5C 79.3333,155.167 79.6667,117.833 80,80.5C 82.7574,78.9733 85.7574,78.3066 89,78.5C 92.2426,78.3066 95.2426,78.9733 98,80.5C 98.6667,119.833 98.6667,159.167 98,198.5C 94.0407,212.953 84.5407,219.953 69.5,219.5C 64.6613,219.624 59.9947,218.79 55.5,217C 41.6152,210.811 28.7819,202.978 17,193.5C 16,191.5 15,189.5 14,187.5C 13.3333,147.5 13.3333,107.5 14,67.5C 16.7505,61.0813 21.2505,56.248 27.5,53C 58.5949,35.1259 89.5949,17.2926 120.5,-0.5 Z"/></g>
<g><path style="opacity:0.927" fill="#fefffe" d="M 148.5,71.5 C 165.679,69.9759 181.679,73.4759 196.5,82C 205.722,90.1747 209.722,100.341 208.5,112.5C 202.193,113.664 195.859,113.831 189.5,113C 187.782,107.527 185.115,102.527 181.5,98C 177.22,95.3503 172.553,93.6836 167.5,93C 157.347,91.8754 147.347,92.5421 137.5,95C 130.438,98.5113 128.272,104.011 131,111.5C 132.419,112.46 133.919,113.293 135.5,114C 153.175,117.251 170.841,120.585 188.5,124C 211.14,130.442 218.64,144.942 211,167.5C 206.711,176.454 199.877,182.621 190.5,186C 172.016,191.184 153.349,191.851 134.5,188C 113.299,183.154 103.133,169.987 104,148.5C 104.5,148 105,147.5 105.5,147C 111.167,146.333 116.833,146.333 122.5,147C 124.825,151.235 126.658,155.735 128,160.5C 132.069,165.285 137.236,168.119 143.5,169C 157.47,171.624 171.136,170.624 184.5,166C 190.043,162.223 191.877,157.056 190,150.5C 189.07,148.448 187.57,146.948 185.5,146C 180.625,144.198 175.625,142.865 170.5,142C 155.179,141.044 140.179,138.377 125.5,134C 109.4,126.962 103.567,114.796 108,97.5C 111.352,88.147 117.519,81.3137 126.5,77C 133.763,74.3206 141.097,72.4872 148.5,71.5 Z"/></g>
</svg>
