<?xml version="1.0" encoding="UTF-8"?>
<!DOCTYPE svg PUBLIC "-//W3C//DTD SVG 1.1//EN" "http://www.w3.org/Graphics/SVG/1.1/DTD/svg11.dtd">
<svg xmlns="http://www.w3.org/2000/svg" version="1.1" width="100px" height="100px" style="shape-rendering:geometricPrecision; text-rendering:geometricPrecision; image-rendering:optimizeQuality; fill-rule:evenodd; clip-rule:evenodd" xmlns:xlink="http://www.w3.org/1999/xlink">
<g><path style="opacity:0.961" fill="#fefffe" d="M 2.5,-0.5 C 33.8333,-0.5 65.1667,-0.5 96.5,-0.5C 97.1667,0.833333 98.1667,1.83333 99.5,2.5C 99.5,8.16667 99.5,13.8333 99.5,19.5C 66.1667,19.5 32.8333,19.5 -0.5,19.5C -0.5,13.8333 -0.5,8.16667 -0.5,2.5C 0.833333,1.83333 1.83333,0.833333 2.5,-0.5 Z M 7.5,6.5 C 10.1667,6.5 12.8333,6.5 15.5,6.5C 15.5,9.5 15.5,12.5 15.5,15.5C 7.08376,17.4217 4.4171,14.4217 7.5,6.5 Z M 20.5,6.5 C 28.6571,4.48566 31.3238,7.31899 28.5,15C 25.854,15.4974 23.1873,15.6641 20.5,15.5C 20.5,12.5 20.5,9.5 20.5,6.5 Z M 34.5,6.5 C 37.1194,6.23166 39.6194,6.565 42,7.5C 42.4974,10.146 42.6641,12.8127 42.5,15.5C 39.5,15.5 36.5,15.5 33.5,15.5C 33.2641,12.3915 33.5975,9.39147 34.5,6.5 Z"/></g>
<g><path style="opacity:0.695" fill="#fefffe" d="M 9.5,9.5 C 10.8333,9.5 12.1667,9.5 13.5,9.5C 13.5,10.8333 13.5,12.1667 13.5,13.5C 12.1667,13.5 10.8333,13.5 9.5,13.5C 9.5,12.1667 9.5,10.8333 9.5,9.5 Z"/></g>
<g><path style="opacity:0.694" fill="#fefffe" d="M 22.5,9.5 C 23.8333,9.5 25.1667,9.5 26.5,9.5C 26.5,10.8333 26.5,12.1667 26.5,13.5C 25.1667,13.5 23.8333,13.5 22.5,13.5C 22.5,12.1667 22.5,10.8333 22.5,9.5 Z"/></g>
<g><path style="opacity:0.556" fill="#fefffe" d="M 35.5,9.5 C 37.1667,9.5 38.8333,9.5 40.5,9.5C 40.5,10.8333 40.5,12.1667 40.5,13.5C 38.8333,13.5 37.1667,13.5 35.5,13.5C 35.5,12.1667 35.5,10.8333 35.5,9.5 Z"/></g>
<g><path style="opacity:0.925" fill="#fefffe" d="M -0.5,22.5 C 32.8333,22.5 66.1667,22.5 99.5,22.5C 99.5,47.1667 99.5,71.8333 99.5,96.5C 98.1667,97.1667 97.1667,98.1667 96.5,99.5C 65.1667,99.5 33.8333,99.5 2.5,99.5C 1.48837,98.1283 0.488369,96.795 -0.5,95.5C -0.5,71.1667 -0.5,46.8333 -0.5,22.5 Z M 7.5,26.5 C 35.502,26.3334 63.502,26.5 91.5,27C 92.6598,48.4271 92.8265,69.9271 92,91.5C 63.9053,92.6614 35.7387,92.8281 7.5,92C 6.17187,70.1667 6.17187,48.3334 7.5,26.5 Z M 13.5,38.5 C 37.5,38.5 61.5,38.5 85.5,38.5C 85.5,52.5 85.5,66.5 85.5,80.5C 61.5,80.5 37.5,80.5 13.5,80.5C 13.5,66.5 13.5,52.5 13.5,38.5 Z M 23.5,44.5 C 26.9099,44.4571 30.2432,44.9571 33.5,46C 38.4052,49.9625 38.7385,54.2958 34.5,59C 31.3117,60.3158 27.9783,60.8158 24.5,60.5C 24.6655,64.5138 24.4988,68.5138 24,72.5C 23.586,72.9574 23.086,73.2907 22.5,73.5C 20.9042,63.5936 21.2375,53.927 23.5,44.5 Z M 64.5,44.5 C 71.9799,43.3518 76.9799,46.1851 79.5,53C 77.2989,59.8827 72.6322,62.3827 65.5,60.5C 65.8256,64.8839 65.4922,69.2172 64.5,73.5C 63.1947,63.7732 63.1947,54.1065 64.5,44.5 Z M 41.5,45.5 C 42.4959,45.4142 43.3292,45.7476 44,46.5C 44.4988,50.4862 44.6655,54.4862 44.5,58.5C 48.1667,58.5 51.8333,58.5 55.5,58.5C 55.1744,54.1161 55.5078,49.7828 56.5,45.5C 57.8333,54.8333 57.8333,64.1667 56.5,73.5C 55.5078,69.2172 55.1744,64.8839 55.5,60.5C 51.8333,60.5 48.1667,60.5 44.5,60.5C 44.6655,64.5138 44.4988,68.5138 44,72.5C 43.586,72.9574 43.086,73.2907 42.5,73.5C 41.5017,64.1904 41.1684,54.8571 41.5,45.5 Z"/></g>
<g><path style="opacity:0.885" fill="#fefffe" d="M 9.5,29.5 C 36.5,29.5 63.5,29.5 90.5,29.5C 90.5,49.5 90.5,69.5 90.5,89.5C 63.5,89.5 36.5,89.5 9.5,89.5C 9.5,69.5 9.5,49.5 9.5,29.5 Z M 13.5,38.5 C 13.5,52.5 13.5,66.5 13.5,80.5C 37.5,80.5 61.5,80.5 85.5,80.5C 85.5,66.5 85.5,52.5 85.5,38.5C 61.5,38.5 37.5,38.5 13.5,38.5 Z M 23.5,44.5 C 21.2375,53.927 20.9042,63.5936 22.5,73.5C 23.086,73.2907 23.586,72.9574 24,72.5C 24.4988,68.5138 24.6655,64.5138 24.5,60.5C 27.9783,60.8158 31.3117,60.3158 34.5,59C 38.7385,54.2958 38.4052,49.9625 33.5,46C 30.2432,44.9571 26.9099,44.4571 23.5,44.5 Z M 64.5,44.5 C 63.1947,54.1065 63.1947,63.7732 64.5,73.5C 65.4922,69.2172 65.8256,64.8839 65.5,60.5C 72.6322,62.3827 77.2989,59.8827 79.5,53C 76.9799,46.1851 71.9799,43.3518 64.5,44.5 Z M 41.5,45.5 C 41.1684,54.8571 41.5017,64.1904 42.5,73.5C 43.086,73.2907 43.586,72.9574 44,72.5C 44.4988,68.5138 44.6655,64.5138 44.5,60.5C 48.1667,60.5 51.8333,60.5 55.5,60.5C 55.1744,64.8839 55.5078,69.2172 56.5,73.5C 57.8333,64.1667 57.8333,54.8333 56.5,45.5C 55.5078,49.7828 55.1744,54.1161 55.5,58.5C 51.8333,58.5 48.1667,58.5 44.5,58.5C 44.6655,54.4862 44.4988,50.4862 44,46.5C 43.3292,45.7476 42.4959,45.4142 41.5,45.5 Z"/></g>
<g><path style="opacity:0.851" fill="#fefffe" d="M 15.5,40.5 C 38.1667,40.5 60.8333,40.5 83.5,40.5C 83.5,53.1667 83.5,65.8333 83.5,78.5C 60.8333,78.5 38.1667,78.5 15.5,78.5C 15.5,65.8333 15.5,53.1667 15.5,40.5 Z M 23.5,44.5 C 21.2375,53.927 20.9042,63.5936 22.5,73.5C 23.086,73.2907 23.586,72.9574 24,72.5C 24.4988,68.5138 24.6655,64.5138 24.5,60.5C 27.9783,60.8158 31.3117,60.3158 34.5,59C 38.7385,54.2958 38.4052,49.9625 33.5,46C 30.2432,44.9571 26.9099,44.4571 23.5,44.5 Z M 64.5,44.5 C 63.1947,54.1065 63.1947,63.7732 64.5,73.5C 65.4922,69.2172 65.8256,64.8839 65.5,60.5C 72.6322,62.3827 77.2989,59.8827 79.5,53C 76.9799,46.1851 71.9799,43.3518 64.5,44.5 Z M 41.5,45.5 C 41.1684,54.8571 41.5017,64.1904 42.5,73.5C 43.086,73.2907 43.586,72.9574 44,72.5C 44.4988,68.5138 44.6655,64.5138 44.5,60.5C 48.1667,60.5 51.8333,60.5 55.5,60.5C 55.1744,64.8839 55.5078,69.2172 56.5,73.5C 57.8333,64.1667 57.8333,54.8333 56.5,45.5C 55.5078,49.7828 55.1744,54.1161 55.5,58.5C 51.8333,58.5 48.1667,58.5 44.5,58.5C 44.6655,54.4862 44.4988,50.4862 44,46.5C 43.3292,45.7476 42.4959,45.4142 41.5,45.5 Z"/></g>
<g><path style="opacity:0.856" fill="#fefffe" d="M 24.5,47.5 C 27.1873,47.3359 29.854,47.5026 32.5,48C 35.4875,50.8772 35.8208,53.8772 33.5,57C 30.6492,58.2886 27.6492,58.7886 24.5,58.5C 24.5,54.8333 24.5,51.1667 24.5,47.5 Z"/></g>
<g><path style="opacity:0.788" fill="#fefffe" d="M 65.5,47.5 C 68.5184,47.3354 71.5184,47.502 74.5,48C 77.1217,51.1305 77.1217,54.2972 74.5,57.5C 71.5788,58.4066 68.5788,58.7399 65.5,58.5C 65.5,54.8333 65.5,51.1667 65.5,47.5 Z"/></g>
</svg>
