<?xml version="1.0" encoding="UTF-8"?>
<!DOCTYPE svg PUBLIC "-//W3C//DTD SVG 1.1//EN" "http://www.w3.org/Graphics/SVG/1.1/DTD/svg11.dtd">
<svg xmlns="http://www.w3.org/2000/svg" version="1.1" width="200px" height="200px" style="shape-rendering:geometricPrecision; text-rendering:geometricPrecision; image-rendering:optimizeQuality; fill-rule:evenodd; clip-rule:evenodd" xmlns:xlink="http://www.w3.org/1999/xlink">
<g><path style="opacity:0.974" fill="#fefffe" d="M 95.5,7.5 C 98.1873,7.33591 100.854,7.50258 103.5,8C 131.61,17.2576 159.443,27.0909 187,37.5C 183.913,75.6152 179.58,113.615 174,151.5C 149.639,165.763 124.806,179.096 99.5,191.5C 94.9565,190.23 90.6232,188.397 86.5,186C 65.7574,174.88 45.2574,163.38 25,151.5C 19.3483,113.623 15.015,75.6225 12,37.5C 39.953,27.5734 67.7864,17.5734 95.5,7.5 Z M 98.5,30.5 C 101.7,33.8656 104.2,37.8656 106,42.5C 120.56,74.62 135.393,106.62 150.5,138.5C 145.198,139.663 139.864,139.829 134.5,139C 130.833,131.333 127.167,123.667 123.5,116C 107.49,115.167 91.4896,115.334 75.5,116.5C 71.6894,123.954 68.0227,131.454 64.5,139C 59.1357,139.829 53.8023,139.663 48.5,138.5C 65.3654,102.56 82.0321,66.5603 98.5,30.5 Z"/></g>
<g><path style="opacity:0.919" fill="#fefffe" d="M 98.5,65.5 C 99.3764,65.3691 100.043,65.7025 100.5,66.5C 105.5,77.1667 110.5,87.8333 115.5,98.5C 104.833,99.8333 94.1667,99.8333 83.5,98.5C 88.7859,87.5974 93.7859,76.5974 98.5,65.5 Z"/></g>
</svg>
