<?xml version="1.0" encoding="UTF-8"?>
<!DOCTYPE svg PUBLIC "-//W3C//DTD SVG 1.1//EN" "http://www.w3.org/Graphics/SVG/1.1/DTD/svg11.dtd">
<svg xmlns="http://www.w3.org/2000/svg" version="1.1" width="64px" height="64px" style="shape-rendering:geometricPrecision; text-rendering:geometricPrecision; image-rendering:optimizeQuality; fill-rule:evenodd; clip-rule:evenodd" xmlns:xlink="http://www.w3.org/1999/xlink">
<g><path style="opacity:0.919" fill="#fefffe" d="M 3.5,-0.5 C 22.1667,-0.5 40.8333,-0.5 59.5,-0.5C 58.3316,18.52 56.8316,37.52 55,56.5C 48.5914,59.2225 42.0914,61.5558 35.5,63.5C 32.8333,63.5 30.1667,63.5 27.5,63.5C 20.9086,61.5558 14.4086,59.2225 8,56.5C 6.16841,37.52 4.66841,18.52 3.5,-0.5 Z M 14.5,11.5 C 25.8333,11.5 37.1667,11.5 48.5,11.5C 47.9731,23.4738 46.6398,35.3072 44.5,47C 40.3531,48.245 36.1864,49.4117 32,50.5C 27.4381,49.5679 22.9381,48.4012 18.5,47C 17.2607,43.6358 16.5941,40.1358 16.5,36.5C 18.5,36.5 20.5,36.5 22.5,36.5C 22.6671,42.1147 25.6671,44.7813 31.5,44.5C 34.5473,44.0322 37.3807,43.0322 40,41.5C 40.4983,38.1832 40.665,34.8499 40.5,31.5C 32.4931,31.6664 24.4931,31.4997 16.5,31C 15.5939,29.3005 15.2606,27.4672 15.5,25.5C 24.1667,25.5 32.8333,25.5 41.5,25.5C 41.2924,23.0799 41.6258,20.7466 42.5,18.5C 33.1904,17.5017 23.8571,17.1684 14.5,17.5C 14.5,15.5 14.5,13.5 14.5,11.5 Z"/></g>
</svg>
