<?xml version="1.0" encoding="UTF-8"?>
<!DOCTYPE svg PUBLIC "-//W3C//DTD SVG 1.1//EN" "http://www.w3.org/Graphics/SVG/1.1/DTD/svg11.dtd">
<svg xmlns="http://www.w3.org/2000/svg" version="1.1" width="64px" height="64px" style="shape-rendering:geometricPrecision; text-rendering:geometricPrecision; image-rendering:optimizeQuality; fill-rule:evenodd; clip-rule:evenodd" xmlns:xlink="http://www.w3.org/1999/xlink">
<g><path style="opacity:0.912" fill="#fefffe" d="M 3.5,-0.5 C 22.1667,-0.5 40.8333,-0.5 59.5,-0.5C 58.9373,18.5851 57.4373,37.5851 55,56.5C 48.3337,58.6164 41.8337,60.9497 35.5,63.5C 32.8333,63.5 30.1667,63.5 27.5,63.5C 21.1848,60.893 14.6848,58.5596 8,56.5C 5.56269,37.5851 4.06269,18.5851 3.5,-0.5 Z M 14.5,11.5 C 25.8333,11.5 37.1667,11.5 48.5,11.5C 48.5,13.5 48.5,15.5 48.5,17.5C 39.5,17.5 30.5,17.5 21.5,17.5C 21.2229,20.4475 21.5562,23.2809 22.5,26C 30.8267,26.4997 39.16,26.6664 47.5,26.5C 47.2743,33.2082 46.6076,39.8748 45.5,46.5C 40.8333,48.1667 36.1667,49.8333 31.5,51.5C 26.8333,49.8333 22.1667,48.1667 17.5,46.5C 16.513,43.2317 16.1796,39.8984 16.5,36.5C 18.5,36.5 20.5,36.5 22.5,36.5C 22.2606,38.4672 22.5939,40.3005 23.5,42C 26.2635,42.5323 28.9302,43.3657 31.5,44.5C 34.4308,43.7272 37.2641,42.7272 40,41.5C 40.2178,38.5738 40.7178,35.7405 41.5,33C 32.8397,32.5002 24.1731,32.3336 15.5,32.5C 15.2269,25.4964 14.8936,18.4964 14.5,11.5 Z"/></g>
</svg>
