<?xml version="1.0" encoding="UTF-8"?>
<!DOCTYPE svg PUBLIC "-//W3C//DTD SVG 1.1//EN" "http://www.w3.org/Graphics/SVG/1.1/DTD/svg11.dtd">
<svg xmlns="http://www.w3.org/2000/svg" version="1.1" width="64px" height="64px" style="shape-rendering:geometricPrecision; text-rendering:geometricPrecision; image-rendering:optimizeQuality; fill-rule:evenodd; clip-rule:evenodd" xmlns:xlink="http://www.w3.org/1999/xlink">
<g><path style="opacity:1" fill="#fdfdfd" d="M -0.5,-0.5 C 20.8333,-0.5 42.1667,-0.5 63.5,-0.5C 63.5,20.8333 63.5,42.1667 63.5,63.5C 42.1667,63.5 20.8333,63.5 -0.5,63.5C -0.5,42.1667 -0.5,20.8333 -0.5,-0.5 Z"/></g>
<g><path style="opacity:1" fill="#0e0e0e" d="M 28.5,28.5 C 30.5,28.5 32.5,28.5 34.5,28.5C 34.6664,36.1739 34.4997,43.8406 34,51.5C 31.3506,58.5481 26.5172,60.3814 19.5,57C 15.3659,54.2679 15.6993,52.1013 20.5,50.5C 21.8745,51.7113 23.3745,52.7113 25,53.5C 26.2613,53.2409 27.2613,52.5742 28,51.5C 28.4997,43.8406 28.6664,36.1739 28.5,28.5 Z"/></g>
<g><path style="opacity:1" fill="#0c0c0c" d="M 44.5,28.5 C 49.4373,27.6034 53.4373,29.1034 56.5,33C 55.6008,34.2362 54.4341,35.0696 53,35.5C 51.1049,33.8179 48.9383,33.3179 46.5,34C 45.1667,35.6667 45.1667,37.3333 46.5,39C 51.2767,40.1331 55.11,42.6331 58,46.5C 58.5251,55.9649 54.0251,59.7982 44.5,58C 41.6612,57.2592 39.6612,55.5926 38.5,53C 39.0762,51.2856 40.2429,50.1189 42,49.5C 43.6195,51.7262 45.7862,53.0596 48.5,53.5C 51.9865,52.8754 52.9865,51.0421 51.5,48C 46.6094,46.4837 42.7761,43.6503 40,39.5C 38.7758,34.626 40.2758,30.9593 44.5,28.5 Z"/></g>
</svg>
