<?xml version="1.0" encoding="UTF-8"?>
<!DOCTYPE svg PUBLIC "-//W3C//DTD SVG 1.1//EN" "http://www.w3.org/Graphics/SVG/1.1/DTD/svg11.dtd">
<svg xmlns="http://www.w3.org/2000/svg" version="1.1" width="256px" height="256px" style="shape-rendering:geometricPrecision; text-rendering:geometricPrecision; image-rendering:optimizeQuality; fill-rule:evenodd; clip-rule:evenodd" xmlns:xlink="http://www.w3.org/1999/xlink">
<g><path style="opacity:0.986" fill="#fefffe" d="M 129.5,5.5 C 131.959,9.73839 134.459,14.0717 137,18.5C 163.476,44.7785 179.976,76.4451 186.5,113.5C 187.832,143.849 179.999,171.516 163,196.5C 156.333,204.5 149,211.833 141,218.5C 138.19,229.337 136.357,240.337 135.5,251.5C 131.167,251.5 126.833,251.5 122.5,251.5C 121.517,241.486 120.35,231.486 119,221.5C 77.4443,186.84 62.111,142.84 73,89.5C 80.5537,59.3072 96.2204,34.3072 120,14.5C 121.202,12.3225 121.702,9.9892 121.5,7.5C 124.373,7.19767 127.039,6.53101 129.5,5.5 Z"/></g>
</svg>
