<?xml version="1.0" encoding="UTF-8"?>
<!DOCTYPE svg PUBLIC "-//W3C//DTD SVG 1.1//EN" "http://www.w3.org/Graphics/SVG/1.1/DTD/svg11.dtd">
<svg xmlns="http://www.w3.org/2000/svg" version="1.1" width="256px" height="256px" style="shape-rendering:geometricPrecision; text-rendering:geometricPrecision; image-rendering:optimizeQuality; fill-rule:evenodd; clip-rule:evenodd" xmlns:xlink="http://www.w3.org/1999/xlink">
<g><path style="opacity:0.983" fill="#fefffe" d="M 111.5,-0.5 C 122.167,-0.5 132.833,-0.5 143.5,-0.5C 197.566,8.72439 233.399,39.3911 251,91.5C 252.585,97.9498 254.085,104.283 255.5,110.5C 255.5,122.167 255.5,133.833 255.5,145.5C 248.762,183.648 229.429,213.648 197.5,235.5C 163.112,185.264 129.278,134.598 96,83.5C 95.1667,82.6667 94.3333,81.8333 93.5,81C 89.8333,80.3333 86.1667,80.3333 82.5,81C 82,81.5 81.5,82 81,82.5C 80.7992,93.0339 80.2992,103.534 79.5,114C 79.3874,137.007 79.7207,160.507 80.5,184.5C 82.5355,186.013 84.8688,186.679 87.5,186.5C 90.0114,186.712 92.1781,186.045 94,184.5C 94.1668,159.16 94.6668,133.827 95.5,108.5C 113.482,133.783 130.982,159.45 148,185.5C 161.576,202.987 174.91,220.654 188,238.5C 188.749,239.635 188.583,240.635 187.5,241.5C 174.103,248.34 160.103,253.007 145.5,255.5C 133.5,255.5 121.5,255.5 109.5,255.5C 48.4871,243.154 11.8205,206.487 -0.5,145.5C -0.5,133.833 -0.5,122.167 -0.5,110.5C 11.8021,48.2194 49.1354,11.2194 111.5,-0.5 Z M 162.5,76.5 C 164.857,76.3367 167.19,76.5034 169.5,77C 171.061,77.3176 172.228,78.1509 173,79.5C 173.667,108.833 173.667,138.167 173,167.5C 168.085,160.672 163.419,153.672 159,146.5C 158.333,124.5 158.333,102.5 159,80.5C 159.69,78.6498 160.856,77.3164 162.5,76.5 Z"/></g>
</svg>
