<?xml version="1.0" encoding="UTF-8"?>
<!DOCTYPE svg PUBLIC "-//W3C//DTD SVG 1.1//EN" "http://www.w3.org/Graphics/SVG/1.1/DTD/svg11.dtd">
<svg xmlns="http://www.w3.org/2000/svg" version="1.1" width="64px" height="64px" style="shape-rendering:geometricPrecision; text-rendering:geometricPrecision; image-rendering:optimizeQuality; fill-rule:evenodd; clip-rule:evenodd" xmlns:xlink="http://www.w3.org/1999/xlink">
<g><path style="opacity:0.995" fill="#fdfdfd" d="M 1.5,-0.5 C 21.5,-0.5 41.5,-0.5 61.5,-0.5C 61.8333,0.5 62.5,1.16667 63.5,1.5C 63.5,21.5 63.5,41.5 63.5,61.5C 62.5,61.8333 61.8333,62.5 61.5,63.5C 41.5,63.5 21.5,63.5 1.5,63.5C 1.16667,62.5 0.5,61.8333 -0.5,61.5C -0.5,41.5 -0.5,21.5 -0.5,1.5C 0.5,1.16667 1.16667,0.5 1.5,-0.5 Z"/></g>
<g><path style="opacity:1" fill="#0e0e0e" d="M 55.5,29.5 C 56.3414,31.3792 56.6747,33.3792 56.5,35.5C 53.2214,34.5078 49.8881,34.3412 46.5,35C 45.1398,36.9376 45.4732,38.6043 47.5,40C 53.4427,40.9469 57.1094,44.2802 58.5,50C 57.9658,54.2031 55.6325,56.8698 51.5,58C 47.4631,58.6067 43.4631,58.44 39.5,57.5C 39.2011,55.396 39.5344,53.396 40.5,51.5C 43.2893,53.2982 46.2893,53.7982 49.5,53C 51.5268,51.6043 51.8602,49.9376 50.5,48C 46.5808,46.4597 43.0808,44.2931 40,41.5C 38.2762,36.2686 39.7762,32.4353 44.5,30C 48.1516,29.5014 51.8183,29.3347 55.5,29.5 Z"/></g>
<g><path style="opacity:1" fill="#101010" d="M 22.5,57.5 C 22.5,49.8333 22.5,42.1667 22.5,34.5C 19.8333,34.5 17.1667,34.5 14.5,34.5C 14.5,32.8333 14.5,31.1667 14.5,29.5C 21.8333,29.5 29.1667,29.5 36.5,29.5C 36.5,31.5 36.5,33.5 36.5,35.5C 33.8333,35.5 31.1667,35.5 28.5,35.5C 28.5,42.8333 28.5,50.1667 28.5,57.5C 26.5,57.5 24.5,57.5 22.5,57.5 Z"/></g>
<g><path style="opacity:1" fill="#8f8f8f" d="M 55.5,29.5 C 56.7251,30.1522 57.3917,31.3189 57.5,33C 57.6296,34.8898 57.2963,35.7231 56.5,35.5C 56.6747,33.3792 56.3414,31.3792 55.5,29.5 Z"/></g>
<g><path style="opacity:1" fill="#acacac" d="M 14.5,34.5 C 17.1667,34.5 19.8333,34.5 22.5,34.5C 22.5,42.1667 22.5,49.8333 22.5,57.5C 21.5084,50.3524 21.175,43.0191 21.5,35.5C 18.9407,35.8016 16.6074,35.4682 14.5,34.5 Z"/></g>
</svg>
