<?xml version="1.0" encoding="UTF-8"?>
<!DOCTYPE svg PUBLIC "-//W3C//DTD SVG 1.1//EN" "http://www.w3.org/Graphics/SVG/1.1/DTD/svg11.dtd">
<svg xmlns="http://www.w3.org/2000/svg" version="1.1" width="100px" height="100px" style="shape-rendering:geometricPrecision; text-rendering:geometricPrecision; image-rendering:optimizeQuality; fill-rule:evenodd; clip-rule:evenodd" xmlns:xlink="http://www.w3.org/1999/xlink">
<g><path style="opacity:0.967" fill="#fefffe" d="M 39.5,3.5 C 45.1764,3.33391 50.8431,3.50058 56.5,4C 60.24,5.28988 63.4067,7.45654 66,10.5C 67.2929,22.4041 67.9596,34.4041 68,46.5C 69.3507,40.9284 69.8507,35.2617 69.5,29.5C 86.7613,25.4558 95.428,32.1225 95.5,49.5C 96.8127,58.0873 93.8127,64.5873 86.5,69C 74.8191,69.1675 63.1524,69.6675 51.5,70.5C 58.1335,71.4967 64.8002,71.83 71.5,71.5C 74.5315,87.9665 67.6982,95.9665 51,95.5C 42.5891,96.7045 36.2558,93.7045 32,86.5C 31.6667,75.8333 31.3333,65.1667 31,54.5C 29.6746,59.4012 29.1746,64.4012 29.5,69.5C 12.2387,73.5442 3.57202,66.8775 3.5,49.5C 2.18728,40.9127 5.18728,34.4127 12.5,30C 24.1809,29.8325 35.8476,29.3325 47.5,28.5C 40.8665,27.5033 34.1998,27.17 27.5,27.5C 24.1643,15.5023 28.1643,7.50227 39.5,3.5 Z M 37.5,14.5 C 42.1585,14.0146 43.4919,15.848 41.5,20C 36.7282,20.8104 35.3948,18.9771 37.5,14.5 Z M 37.5,49.5 C 46.5062,49.3336 55.5062,49.5002 64.5,50C 54.5745,51.5897 44.5745,51.9231 34.5,51C 35.7375,50.7679 36.7375,50.2679 37.5,49.5 Z M 57.5,78.5 C 62.1585,78.0146 63.4919,79.848 61.5,84C 56.7282,84.8104 55.3948,82.9771 57.5,78.5 Z"/></g>
</svg>
