<svg width="54" height="46" viewBox="0 0 54 46" fill="none" xmlns="http://www.w3.org/2000/svg">
<path d="M1.32933 0.422216C-0.0628413 1.26382 0.00043945 0.295975 0.00043945 19.2952C0.00043945 35.5803 0.021533 36.5482 0.380124 37.2425C1.18168 38.7363 1.01293 38.7153 12.4667 38.7153H22.7182L23.1823 39.2203C23.4354 39.4938 23.6674 39.9777 23.6885 40.3143L23.7307 40.9245L18.3308 41.0297C13.3738 41.1349 12.8675 41.177 12.4667 41.5347C11.9183 42.0396 11.5386 43.2179 11.6441 44.1857L11.7074 44.9221L27.0635 44.9853L42.3985 45.0273V44.0805C42.3985 43.5545 42.272 42.7971 42.1032 42.3973C41.5548 41.1139 41.1329 41.0297 35.4377 41.0297H30.3752V40.3985C30.3752 39.9987 30.565 39.5569 30.9025 39.2413L31.4088 38.7153H41.597C51.068 38.7153 51.8485 38.6943 52.5024 38.3366C52.9031 38.1262 53.4094 37.6212 53.6203 37.2214C53.9789 36.5482 54 35.5593 54 19.1269C54 1.81087 54 1.74775 53.557 1.17966C52.5656 -0.0617076 54.1688 0.00141286 26.958 0.00141286C2.57386 0.00141286 1.98324 0.022453 1.32933 0.422216ZM15.7784 6.69218C16.4956 7.36547 16.7698 8.14395 16.58 8.9014C16.5167 9.17492 15.1245 11.4473 13.5003 13.93C11.8761 16.4338 10.5472 18.5799 10.5472 18.6851C10.5472 18.8113 11.8761 20.9574 13.5003 23.4612C15.1456 25.986 16.5167 28.3004 16.6011 28.616C16.6644 28.9527 16.5589 29.5207 16.348 29.9626C15.7152 31.2671 14.2175 31.73 13.0152 30.9725C12.4246 30.6148 4.85196 19.19 4.85196 18.6851C4.87306 18.138 12.5511 6.62906 13.0785 6.37658C14.0066 5.9137 15.0823 6.03994 15.7784 6.69218ZM41.2173 6.52386C41.6392 6.8605 49.1485 18.4115 49.1485 18.7061C49.1485 18.8324 47.4188 21.5886 45.3094 24.8288C41.4071 30.8463 40.9853 31.3512 39.7618 31.3512C38.4118 31.3512 37.1462 29.8784 37.3994 28.616C37.4837 28.3004 38.8548 25.986 40.479 23.4822C42.1243 20.9784 43.4532 18.8113 43.4532 18.7061C43.4532 18.5799 42.1243 16.4338 40.5001 13.93C38.8759 11.4473 37.4837 9.17492 37.4204 8.9014C37.2306 8.14395 37.5048 7.36547 38.2431 6.67114C38.8337 6.1241 39.0236 6.06098 39.9095 6.14514C40.4579 6.20826 41.0485 6.37658 41.2173 6.52386ZM20.2503 15.8236C21.6635 16.7915 22.0854 18.4747 21.305 19.9685C20.0182 22.5144 16.137 22.0725 15.3777 19.2952C15.0823 18.2222 15.2933 17.3806 16.0948 16.4759C16.8753 15.5922 17.3183 15.3818 18.5839 15.3818C19.2589 15.3607 19.7651 15.508 20.2503 15.8236ZM28.6455 15.7815C31.3877 17.4437 30.2064 21.6728 27.0002 21.6728C23.794 21.6728 22.6128 17.4437 25.3549 15.7815C26.2619 15.2345 27.7385 15.2345 28.6455 15.7815ZM37.2939 15.8236C38.0533 16.2865 38.7915 17.612 38.8126 18.4957C38.8126 19.2321 38.0533 20.6628 37.3994 21.1257C36.5767 21.7149 34.8892 21.799 33.9611 21.294C33.0752 20.8101 32.2736 19.5267 32.2736 18.5588C32.2736 17.591 33.0119 16.2655 33.8134 15.7815C34.7416 15.2134 36.3236 15.2345 37.2939 15.8236Z" fill="white"/>
</svg>
